# xmcd
#
# Track frame offsets:
#	150
#	15838
#	29939
#	44102
#	58297
#	70644
#	85290
#	99510
#	114520
#	128798
#	143848
#	156537
#	170991
#	183459
#	196805
#	210837
#	223586
#	239714
#	253643
#	266683
#	281061
#	295802
#	309308
#	322867
#	336240
#
# Disc length: 4674 seconds
# Revision: 0
# Processed by: cddbd v1.5.2PL0 Copyright (c) Steve Scherf et al.
# Submitted via: dBpowerAMP V12.0
#
DISCID=85124019
DTITLE=Various Artist - Let Me Tell You About The Blues - New York
DYEAR=1923
DGENRE=Blues
TTITLE0=Bessie Smith - Beale Street Mama
TTITLE1=Sylvester Weaver - Guitar Blues
TTITLE2=Ma Rainey - Countin' The Blues
TTITLE3=Lonnie Johnson - To Do This You Got To Know How
TTITLE4=Sam Butler - Jefferson County Blues
TTITLE5=Bobby Leecan - Need More Blues
TTITLE6=Robert Hicks - Mississippi Heavy Water Blues
TTITLE7=Victoria Spivey - Dope Head Blues
TTITLE8=Helen Humes - Cross-Eyed Blues
TTITLE9=Texas Alexander - Work Ox Blues
TTITLE10=Mississippi John Hurt - Candy Man Blues
TTITLE11=Kansas Joe McCoy - When The Levee Breaks
TTITLE12=Famous Hokum Boys - Pussy Cat, Pussy Cat
TTITLE13=Bo Chatman - My Pencil Won't Write No More
TTITLE14=Sam Collins - Slow Mama Slow
TTITLE15=Tampa Red and Georgia Tom - Dead Cats On The Line
TTITLE16=Jelly Jaw Short - Snake Doctor Blues
TTITLE17=Amos Easton - B and O Blues
TTITLE18=Big Bill - How You Want It Done
TTITLE19=Curley Weaver - No No Blues
TTITLE20=Buddy Moss - Hard Road Blues
TTITLE21=Lucille Bogan - Groceries On The Shelf
TTITLE22=Jack Kelly - President Blues
TTITLE23=Blind Willie McTell - Warm It Up To Me
TTITLE24=Charley Patton - High Sheriff Blues
EXTD=
EXTT0=
EXTT1=
EXTT2=
EXTT3=
EXTT4=
EXTT5=
EXTT6=
EXTT7=
EXTT8=
EXTT9=
EXTT10=
EXTT11=
EXTT12=
EXTT13=
EXTT14=
EXTT15=
EXTT16=
EXTT17=
EXTT18=
EXTT19=
EXTT20=
EXTT21=
EXTT22=
EXTT23=
EXTT24=
PLAYORDER=
